<?xml version="1.0" standalone="no"?>
<!DOCTYPE svg PUBLIC "-//W3C//DTD SVG 20010904//EN"
 "http://www.w3.org/TR/2001/REC-SVG-20010904/DTD/svg10.dtd">
<svg version="1.0" xmlns="http://www.w3.org/2000/svg"
 width="1366.000000pt" height="768.000000pt" viewBox="0 0 1366.000000 768.000000"
 preserveAspectRatio="xMidYMid meet">

<g transform="translate(0.000000,768.000000) scale(0.100000,-0.100000)"
fill="#000000" stroke="none">
<path d="M6794 4799 c-17 -5 -49 -27 -73 -49 -23 -22 -45 -40 -48 -40 -4 0
-16 8 -27 19 -12 10 -44 26 -73 36 -46 17 -57 17 -95 5 -24 -8 -61 -31 -82
-53 -38 -37 -41 -38 -92 -31 -67 8 -112 -7 -170 -57 -37 -32 -49 -37 -64 -29
-28 15 -117 12 -150 -5 -33 -17 -80 -74 -80 -97 0 -22 -19 -34 -64 -41 -41 -6
-106 -58 -106 -84 0 -8 -17 -21 -37 -29 -101 -39 -141 -80 -158 -162 -4 -18
-22 -58 -41 -89 -19 -31 -34 -60 -34 -65 0 -4 -11 -31 -24 -60 -38 -83 -116
-291 -116 -309 0 -9 -3 -19 -7 -23 -13 -13 -32 -101 -33 -152 0 -94 37 -144
162 -214 190 -107 411 -192 703 -271 22 -6 51 -15 65 -20 14 -4 52 -13 85 -20
33 -6 80 -15 105 -20 219 -42 329 -52 600 -52 266 -1 411 11 540 43 19 4 60
14 90 20 76 17 275 84 385 130 47 19 232 114 257 131 14 11 30 19 35 20 19 1
140 98 161 130 21 30 23 42 19 109 -6 81 -27 194 -39 206 -5 4 -8 20 -8 35 0
15 -4 31 -10 34 -5 3 -10 14 -10 24 0 19 -25 108 -40 146 -29 71 -49 149 -44
170 11 43 -23 104 -101 181 -53 54 -81 74 -99 74 -20 0 -35 12 -62 50 -50 69
-107 102 -175 99 -46 -2 -54 0 -68 21 -58 88 -124 125 -205 115 -49 -6 -52 -6
-69 25 -10 17 -37 43 -60 58 -38 25 -50 27 -139 27 -84 0 -99 3 -120 21 -29
26 -90 54 -117 54 -12 0 -40 -9 -63 -21 l-41 -21 -42 21 c-45 22 -71 25 -121
10z m121 -95 c38 -42 61 -42 85 1 14 25 24 31 58 33 25 2 42 -1 42 -7 0 -6 6
-11 13 -11 15 0 77 -58 77 -71 0 -15 47 -10 60 6 9 10 32 15 76 15 59 0 65 -2
99 -37 19 -20 35 -40 35 -45 0 -10 -75 45 -85 63 -10 16 -38 10 -31 -6 4 -12
2 -13 -13 -6 -21 12 -59 7 -75 -9 -18 -18 -43 -11 -88 26 -23 19 -50 41 -58
47 -8 7 -25 13 -38 14 -25 2 -80 -40 -91 -70 -6 -17 -11 -15 -47 17 -21 20
-45 36 -51 36 -7 0 -13 5 -13 10 0 18 -40 10 -78 -15 -20 -14 -53 -46 -72 -70
-29 -38 -37 -43 -46 -30 -6 8 -14 15 -18 15 -4 0 -17 9 -29 21 -18 17 -92 59
-104 59 -3 0 -1 -4 2 -10 4 -6 -8 -10 -28 -10 -30 0 -77 -27 -77 -44 0 -3 -8
-15 -17 -26 -20 -23 -51 -25 -96 -6 -30 12 -37 11 -79 -9 -26 -12 -61 -39 -78
-59 -36 -41 -44 -43 -91 -19 -54 27 -97 22 -130 -15 -16 -18 -31 -32 -34 -32
-9 0 10 39 32 64 29 33 83 34 138 3 45 -26 49 -24 93 39 29 42 70 58 129 50
104 -14 106 -13 122 19 18 37 28 47 64 63 59 26 107 9 167 -57 16 -17 33 -31
38 -31 6 0 27 23 47 51 20 28 45 54 56 56 10 3 19 9 19 14 0 5 19 9 42 9 35 0
46 -6 73 -36z m723 -153 c34 -18 72 -53 72 -67 0 -3 -19 8 -42 25 -46 34 -97
41 -118 16 -13 -15 -50 -21 -50 -7 0 9 71 51 88 52 7 0 29 -9 50 -19z m92 -91
c0 -5 -2 -10 -4 -10 -3 0 -8 5 -11 10 -3 6 -1 10 4 10 6 0 11 -4 11 -10z m170
-47 c35 -24 50 -40 50 -52 0 -6 5 -11 12 -11 6 0 8 -3 5 -7 -4 -3 -17 4 -28
16 -30 32 -67 43 -117 36 -32 -5 -46 -2 -59 11 -16 16 -16 16 5 10 12 -4 30
-3 39 3 27 16 66 13 93 -6z m-2022 -28 c2 -2 1 -8 -2 -14 -4 -6 -18 -6 -38 0
-40 11 -68 4 -90 -25 -23 -28 -25 0 -2 33 15 21 22 23 72 17 31 -4 58 -8 60
-11z m-167 -119 c-8 -10 -23 -13 -45 -9 -45 7 -116 -33 -116 -66 0 -8 -3 -11
-6 -8 -12 12 16 63 44 80 36 22 141 24 123 3z m2389 -3 c11 -10 20 -22 20 -27
0 -6 -5 -5 -12 2 -7 7 -29 12 -50 12 -27 0 -38 4 -38 15 0 21 54 20 80 -2z
m90 -97 c0 -9 -7 -12 -20 -9 -11 3 -20 9 -20 14 0 5 9 9 20 9 11 0 20 -6 20
-14z m-2599 -160 c354 -167 803 -255 1320 -256 314 0 497 20 834 91 100 21
314 94 404 138 36 17 68 31 72 31 8 0 69 -188 69 -213 0 -9 4 -18 9 -21 4 -3
11 -20 14 -38 9 -47 32 -143 51 -211 21 -75 20 -95 -3 -134 -27 -44 -235 -165
-431 -250 -19 -8 -47 -22 -62 -29 -14 -8 -33 -14 -42 -14 -9 0 -24 -4 -34 -9
-62 -32 -262 -88 -402 -112 -241 -43 -619 -45 -895 -4 -94 14 -211 37 -227 46
-10 5 -30 9 -45 9 -16 0 -46 5 -68 12 l-40 12 35 7 c23 5 15 6 -27 3 -37 -3
-64 -1 -68 6 -3 5 -20 10 -36 10 -18 0 -28 4 -24 10 3 6 -3 10 -15 10 -26 0
-121 29 -134 41 -6 5 -20 9 -33 9 -12 0 -34 5 -48 12 -24 11 -25 13 -8 20 11
5 6 6 -14 2 -17 -3 -34 0 -38 5 -3 6 -18 11 -33 12 -15 0 -21 3 -14 6 25 10
11 22 -20 17 -22 -4 -29 -2 -20 4 11 7 11 11 0 19 -20 16 -62 27 -54 14 10
-15 -10 -14 -37 3 -50 32 -114 67 -139 77 -16 6 -28 15 -28 20 0 5 -7 9 -15 9
-8 0 -15 4 -15 10 0 5 7 6 17 3 11 -4 14 -3 9 5 -4 7 -15 12 -25 12 -28 0 -51
43 -51 94 0 42 9 73 77 261 25 71 30 84 56 145 8 19 25 63 38 98 13 34 25 62
25 62 1 0 53 -24 115 -54z m9 -766 c0 -5 -7 -10 -15 -10 -8 0 -15 5 -15 10 0
6 7 10 15 10 8 0 15 -4 15 -10z"/>
<path d="M5608 3771 c-9 -15 -19 -18 -45 -14 -31 5 -33 4 -33 -23 0 -26 -3
-29 -32 -29 -30 0 -33 -3 -33 -30 0 -25 4 -30 27 -33 22 -3 30 2 37 20 5 14
18 24 32 25 12 1 25 7 29 14 4 6 16 8 27 5 34 -11 53 3 53 39 0 45 -39 62 -62
26z"/>
<path d="M5690 3755 c-11 -21 -12 -30 -2 -46 11 -17 9 -19 -24 -19 -20 0 -58
-12 -85 -27 -46 -25 -49 -28 -49 -67 0 -23 6 -48 13 -57 15 -20 82 -59 101
-59 17 0 71 27 84 43 20 25 24 95 7 129 -10 21 -12 34 -5 36 23 8 41 36 38 61
-2 21 -9 27 -34 29 -24 2 -33 -2 -44 -23z"/>
<path d="M7812 3748 c-7 -7 -12 -19 -12 -27 -1 -14 -2 -14 -13 0 -27 35 -76
27 -78 -14 0 -12 -3 -16 -6 -9 -2 6 -15 12 -28 12 -23 0 -35 -17 -35 -51 0
-14 -7 -19 -25 -19 -21 0 -25 -5 -25 -28 0 -36 5 -40 35 -34 18 3 25 11 25 28
0 17 6 24 18 24 11 0 27 9 37 20 10 11 30 20 45 20 14 0 31 5 38 12 9 9 12 9
12 0 0 -21 68 -15 80 7 14 27 13 37 -6 55 -18 19 -45 21 -62 4z"/>
<path d="M7754 3646 c-66 -36 -94 -62 -94 -86 1 -84 117 -142 182 -91 29 23
53 89 44 119 -4 11 -16 32 -27 46 -22 28 -67 34 -105 12z"/>
<path d="M6545 3613 c-27 -7 -71 -49 -85 -84 -13 -32 0 -87 27 -115 14 -14 14
-19 -2 -54 -43 -95 25 -190 136 -190 49 0 91 21 118 59 19 26 27 29 102 35 45
4 135 4 201 0 114 -6 122 -8 149 -35 107 -105 269 -62 269 72 0 24 -7 54 -15
66 -14 20 -13 25 10 59 67 99 -14 205 -144 190 -31 -4 -57 -11 -59 -16 -2 -6
-9 -10 -17 -10 -7 0 -19 -9 -26 -20 -13 -18 -30 -20 -240 -24 l-226 -5 -28 29
c-40 42 -106 58 -170 43z m128 -98 l31 -35 257 0 c256 0 289 3 289 23 0 6 7
19 17 29 21 23 104 25 127 2 28 -27 20 -70 -19 -101 -19 -15 -35 -34 -35 -41
0 -8 14 -27 31 -43 25 -24 30 -34 25 -57 -9 -37 -32 -52 -78 -52 -28 0 -46 7
-63 25 -14 13 -25 28 -25 33 0 27 -408 45 -491 22 -26 -7 -40 -19 -49 -39 -7
-17 -25 -35 -42 -42 -27 -11 -36 -10 -67 7 -30 16 -37 25 -39 56 -3 30 1 40
22 54 35 22 33 42 -9 80 -61 55 -39 114 42 114 38 0 49 -5 76 -35z"/>
<path d="M8090 3605 c-7 -9 -22 -12 -39 -9 -36 7 -57 -16 -41 -45 6 -12 15
-21 19 -21 5 0 4 -15 -1 -34 -13 -40 -6 -73 23 -109 17 -23 28 -27 68 -27 57
0 89 27 98 84 4 25 11 36 23 36 25 0 42 25 38 57 -2 23 -9 29 -33 31 -16 2
-36 13 -43 23 -11 15 -21 19 -42 14 -16 -3 -31 -2 -35 4 -9 15 -20 14 -35 -4z
m50 -65 c0 -5 -2 -10 -4 -10 -3 0 -8 5 -11 10 -3 6 -1 10 4 10 6 0 11 -4 11
-10z"/>
<path d="M6040 3460 c0 -6 -14 -9 -32 -8 -37 3 -48 -19 -28 -58 9 -16 10 -30
2 -52 -22 -63 49 -144 111 -128 43 10 77 45 83 86 5 30 12 40 27 42 13 2 26
14 32 31 8 24 6 31 -8 42 -10 7 -26 11 -36 8 -13 -3 -20 2 -24 17 -5 19 -11
22 -37 18 -17 -3 -33 -1 -36 4 -7 12 -54 10 -54 -2z m10 -64 c0 -3 -4 -8 -10
-11 -5 -3 -10 -1 -10 4 0 6 5 11 10 11 6 0 10 -2 10 -4z m50 0 c0 -11 -19 -15
-25 -6 -3 5 1 10 9 10 9 0 16 -2 16 -4z"/>
<path d="M5438 3333 c7 -3 16 -2 19 1 4 3 -2 6 -13 5 -11 0 -14 -3 -6 -6z"/>
<path d="M7715 3095 c-38 -12 -207 -48 -267 -56 -246 -32 -332 -38 -548 -39
-237 0 -381 9 -545 35 -49 8 -107 17 -127 20 -24 4 -38 2 -38 -5 0 -5 22 -10
49 -10 27 0 64 -6 82 -14 19 -7 95 -21 169 -30 74 -9 159 -21 189 -26 83 -15
372 -12 528 5 195 22 252 32 423 79 52 14 98 26 103 26 4 0 7 5 7 10 0 10 -6
11 -25 5z"/>
<path d="M6068 3083 c6 -2 18 -2 25 0 6 3 1 5 -13 5 -14 0 -19 -2 -12 -5z"/>
</g>
</svg>
